# xmcd CD database file generated by RipIT.
#
# Track frame offsets:
#        150
#        15223
#        32521
#        50391
#        64916
#        80889
#        96473
#        115983
#        135982
#        150819
#        169119
#        188629
#        204450
#        222533
#        241033
#        259845
#        277682
#        295814
#        325137
#
# Disc length: 4795 seconds
#
# Revision: 1
# Processed by: cddbd v1.5.1PL2 Copyright (c) Steve Scherf et al.
# Submitted via: RipIT 3.4 www.suwald.com/ripit/ripit.html at Thu Dec  1 18:21:31 CET 2005.
#
DISCID=fe12b913
DTITLE=Kylie Minogue - Ultimate Kylie [CD2)
DYEAR=2004
DGENRE=Pop
TTITLE0=I Believe In You
TTITLE1=Can't Get You Out Of My Head
TTITLE2=Love At First Sight
TTITLE3=Slow
TTITLE4=On A Night Like This
TTITLE5=Spinning Around
TTITLE6=Kids (Radio Edit)
TTITLE7=Confide In Me
TTITLE8=In Your Eyes
TTITLE9=Please Stay
TTITLE10=Red Blooded Woman
TTITLE11=Giving You Up
TTITLE12=Chocolate (Radio Edit)
TTITLE13=Come Into My World (Radio Edit)
TTITLE14=Put Yourself In My Place
TTITLE15=Where The Wild Roses Grow
TTITLE16=Can't Get Blue Monday Out Of My Head
TTITLE17=Slow (Chemical Brothers Remix)
TTITLE18=Data
EXTD=ID3G: 13 YEAR: 2004
EXTT0=
EXTT1=
EXTT2=
EXTT3=
EXTT4=
EXTT5=
EXTT6=
EXTT7=
EXTT8=
EXTT9=
EXTT10=
EXTT11=
EXTT12=
EXTT13=
EXTT14=
EXTT15=
EXTT16=
EXTT17=
EXTT18=
PLAYORDER=
